<svg width="18" height="18" viewBox="0 0 18 18" fill="none" xmlns="http://www.w3.org/2000/svg">
<g clip-path="url(#clip0_204_80)">
<path d="M4.5 0.5625C4.5 0.413316 4.44074 0.270242 4.33525 0.164752C4.22976 0.0592632 4.08668 0 3.9375 0C3.78832 0 3.64524 0.0592632 3.53975 0.164752C3.43426 0.270242 3.375 0.413316 3.375 0.5625V1.125H2.25C1.65326 1.125 1.08097 1.36205 0.65901 1.78401C0.237053 2.20597 0 2.77826 0 3.375L0 4.5H18V3.375C18 2.77826 17.7629 2.20597 17.341 1.78401C16.919 1.36205 16.3467 1.125 15.75 1.125H14.625V0.5625C14.625 0.413316 14.5657 0.270242 14.4602 0.164752C14.3548 0.0592632 14.2117 0 14.0625 0C13.9133 0 13.7702 0.0592632 13.6648 0.164752C13.5593 0.270242 13.5 0.413316 13.5 0.5625V1.125H4.5V0.5625ZM10.5773 11.5268C11.2804 11.5268 11.9093 10.9823 11.9093 10.1993C11.9093 9.26325 11.3164 8.8155 10.6042 8.8155C9.945 8.8155 9.29025 9.25087 9.29025 10.1767C9.29025 11.0959 9.90113 11.5268 10.5773 11.5268Z" fill="white"/>
<path d="M18 15.75V5.625H0V15.75C0 16.3467 0.237053 16.919 0.65901 17.341C1.08097 17.7629 1.65326 18 2.25 18H15.75C16.3467 18 16.919 17.7629 17.341 17.341C17.7629 16.919 18 16.3467 18 15.75ZM10.503 14.3888C9.25425 14.3888 8.64 13.5259 8.58712 12.8059H9.3555C9.40388 13.2221 9.79087 13.7284 10.5379 13.7284C11.4874 13.7284 12.0015 12.7744 12.006 11.2939H11.9756C11.8035 11.7596 11.259 12.1826 10.4198 12.1826C9.46125 12.1826 8.53425 11.4964 8.53425 10.1914C8.53425 8.91225 9.51413 8.15625 10.5559 8.15625C11.8744 8.15625 12.753 8.982 12.753 11.1578C12.753 13.1884 11.9183 14.3876 10.503 14.3876V14.3888ZM7.25175 8.27437V14.2729H6.49125V9.08888H6.47775C6.1515 9.26438 5.48438 9.67387 5.0625 9.963V9.18C5.53654 8.8492 6.02979 8.54679 6.53963 8.27437H7.25175Z" fill="white"/>
</g>
<defs>
<clipPath id="clip0_204_80">
<rect width="18" height="18" fill="white"/>
</clipPath>
</defs>
</svg>
