<svg width="23" height="24" viewBox="0 0 23 24" fill="none" xmlns="http://www.w3.org/2000/svg">
<path d="M11.584 23.029C8.36557 23.029 5.6303 21.9029 3.37818 19.6508C1.12606 17.3987 0 14.6634 0 11.445C0 8.51133 0.955679 5.96768 2.86704 3.81403C4.77839 1.66037 7.14539 0.389029 9.96802 0C10.0462 0 10.123 0.00289606 10.1982 0.00868805C10.2735 0.01448 10.3474 0.022685 10.4198 0.0333036C9.93134 0.714828 9.54472 1.47261 9.25995 2.30666C8.97517 3.14071 8.83279 4.01482 8.83279 4.92899C8.83279 7.50353 9.73344 9.69145 11.5348 11.4928C13.3361 13.2941 15.5245 14.1952 18.1 14.1962C19.018 14.1962 19.8931 14.0538 20.7252 13.769C21.5573 13.4842 22.3045 13.0976 22.9667 12.6092C22.9783 12.6816 22.9865 12.7554 22.9913 12.8307C22.9961 12.906 22.999 12.9828 23 13.0609C22.6293 15.8826 21.3671 18.2491 19.2135 20.1605C17.0598 22.0718 14.5176 23.028 11.584 23.029ZM11.5825 21.581C13.7063 21.581 15.6128 20.9955 17.3021 19.8245C18.9915 18.6536 20.2223 17.1274 20.9945 15.246C20.5119 15.3666 20.0292 15.4632 19.5465 15.5356C19.0639 15.608 18.5812 15.6442 18.0985 15.6442C15.1311 15.6442 12.6034 14.6006 10.5154 12.5136C8.42735 10.4266 7.38382 7.89835 7.38479 4.92899C7.38479 4.44632 7.42099 3.96365 7.49339 3.48099C7.56579 2.99832 7.66232 2.51566 7.78299 2.03299C5.90059 2.80526 4.37392 4.03605 3.20297 5.72539C2.03202 7.41472 1.44703 9.32125 1.448 11.445C1.448 14.2444 2.43746 16.6336 4.41639 18.6126C6.39532 20.5915 8.78307 21.581 11.5825 21.581Z" fill="white"/>
</svg>
