<svg width="29" height="26" viewBox="0 0 29 26" fill="none" xmlns="http://www.w3.org/2000/svg">
<mask id="mask0_207_13" style="mask-type:luminance" maskUnits="userSpaceOnUse" x="0" y="0" width="29" height="26">
<path d="M0.5 0H28.3109V26H0.5V0Z" fill="white"/>
</mask>
<g mask="url(#mask0_207_13)">
<path fill-rule="evenodd" clip-rule="evenodd" d="M14.4055 0C6.7227 0 0.5 5.8175 0.5 13C0.5 18.7525 4.48044 23.6112 10.0079 25.3337C10.7031 25.4475 10.9639 25.0575 10.9639 24.7162C10.9639 24.4075 10.9465 23.3837 10.9465 22.295C7.45274 22.8962 6.54888 21.4987 6.27077 20.7675C6.11433 20.3937 5.43644 19.24 4.84546 18.9312C4.35877 18.6875 3.66349 18.0862 4.82808 18.07C5.92313 18.0537 6.70532 19.0125 6.96604 19.4025C8.21754 21.3687 10.2164 20.8162 11.016 20.475C11.1377 19.63 11.5027 19.0612 11.9025 18.7362C8.80852 18.4112 5.5755 17.29 5.5755 12.3175C5.5755 10.9037 6.11433 9.73375 7.00081 8.82375C6.86175 8.49875 6.37506 7.16625 7.13986 5.37875C7.13986 5.37875 8.30445 5.0375 10.9639 6.71125C12.0763 6.41875 13.2583 6.2725 14.4402 6.2725C15.6222 6.2725 16.8042 6.41875 17.9166 6.71125C20.576 5.02125 21.7406 5.37875 21.7406 5.37875C22.5054 7.16625 22.0187 8.49875 21.8797 8.82375C22.7661 9.73375 23.305 10.8875 23.305 12.3175C23.305 17.3062 20.0546 18.4112 16.9606 18.7362C17.4647 19.1425 17.8992 19.9225 17.8992 21.1412C17.8992 22.88 17.8818 24.2775 17.8818 24.7162C17.8818 25.0575 18.1426 25.4637 18.8378 25.3337C21.5983 24.4624 23.997 22.8038 25.6963 20.5913C27.3957 18.3788 28.3101 15.7238 28.3109 13C28.3109 5.8175 22.0882 0 14.4055 0Z" fill="white"/>
</g>
</svg>
