<svg width="35" height="25" viewBox="0 0 35 25" fill="none" xmlns="http://www.w3.org/2000/svg">
<path d="M32.3505 21.1054C32.9613 18.8274 33.0398 16.4393 32.5799 14.1261C32.12 11.8128 31.1341 9.63637 29.6985 7.76513C28.2628 5.89388 26.4159 4.37801 24.3007 3.33479C22.1854 2.29156 19.8585 1.74896 17.5 1.74896C15.1415 1.74896 12.8146 2.29156 10.6993 3.33479C8.58406 4.37801 6.73717 5.89388 5.30152 7.76513C3.86588 9.63637 2.87998 11.8128 2.42011 14.1261C1.96023 16.4393 2.0387 18.8274 2.64946 21.1054" stroke="white" stroke-width="2.9" stroke-linecap="round"/>
<path d="M18.8086 18.1193C19.6406 19.3322 19.0546 21.1806 17.5 22.2483C15.9454 23.3177 14.0099 23.2015 13.1779 21.9903C12.2896 20.6988 9.22485 13.4367 7.36448 8.94379C7.01427 8.09817 8.04781 7.3875 8.71406 8.01788C12.2401 11.3662 17.922 16.8278 18.8086 18.1193Z" stroke="white" stroke-width="2.9"/>
<path d="M17.5 1.75V5.16667M6.62812 6.25317L9.04371 8.66875M28.3718 6.25317L25.9562 8.66875M32.3505 21.1054L29.0517 20.2205M2.64941 21.1054L5.94821 20.2205" stroke="white" stroke-width="2.9" stroke-linecap="round"/>
</svg>
