<svg width="41" height="42" viewBox="0 0 41 42" fill="none" xmlns="http://www.w3.org/2000/svg">
<path d="M32.0312 26.125C32.0312 33.2015 27.5765 37.6562 20.5 37.6562C13.4235 37.6562 8.96875 33.2015 8.96875 26.125C8.96875 18.5312 17.2352 8.27956 19.7705 5.31427C19.8607 5.20891 19.9726 5.12434 20.0986 5.06635C20.2246 5.00836 20.3617 4.97833 20.5004 4.97833C20.6391 4.97833 20.7762 5.00836 20.9022 5.06635C21.0282 5.12434 21.1401 5.20891 21.2303 5.31427C23.7648 8.27956 32.0312 18.5312 32.0312 26.125Z" stroke="white" stroke-width="2.9" stroke-miterlimit="10"/>
<path d="M25.5469 24.7656C25.5469 26.2948 24.9394 27.7613 23.8582 28.8425C22.7769 29.9238 21.3104 30.5312 19.7812 30.5312" stroke="white" stroke-width="2" stroke-linecap="round" stroke-linejoin="round"/>
</svg>
