<svg width="30" height="30" viewBox="0 0 30 30" fill="none" xmlns="http://www.w3.org/2000/svg">
<path d="M14.2969 4.6875V1.875C14.2969 1.68852 14.371 1.50968 14.5028 1.37782C14.6347 1.24595 14.8135 1.17188 15 1.17188C15.1865 1.17188 15.3653 1.24595 15.4972 1.37782C15.629 1.50968 15.7031 1.68852 15.7031 1.875V4.6875C15.7031 4.87398 15.629 5.05282 15.4972 5.18468C15.3653 5.31655 15.1865 5.39062 15 5.39062C14.8135 5.39062 14.6347 5.31655 14.5028 5.18468C14.371 5.05282 14.2969 4.87398 14.2969 4.6875ZM22.2656 15C22.2656 16.437 21.8395 17.8417 21.0411 19.0366C20.2428 20.2314 19.1081 21.1626 17.7804 21.7126C16.4528 22.2625 14.9919 22.4064 13.5825 22.126C12.1732 21.8457 10.8785 21.1537 9.86243 20.1376C8.84631 19.1215 8.15433 17.8268 7.87398 16.4175C7.59364 15.0081 7.73752 13.5472 8.28744 12.2196C8.83736 10.8919 9.76861 9.75721 10.9634 8.95885C12.1583 8.1605 13.563 7.73438 15 7.73438C16.9263 7.73655 18.7731 8.50273 20.1352 9.86483C21.4973 11.2269 22.2635 13.0737 22.2656 15ZM20.8594 15C20.8594 13.8411 20.5157 12.7083 19.8719 11.7447C19.2281 10.7811 18.3129 10.0301 17.2423 9.58664C16.1716 9.14316 14.9935 9.02713 13.8569 9.25321C12.7203 9.4793 11.6762 10.0373 10.8568 10.8568C10.0373 11.6762 9.4793 12.7203 9.25321 13.8569C9.02713 14.9935 9.14316 16.1716 9.58664 17.2423C10.0301 18.3129 10.7811 19.2281 11.7447 19.8719C12.7083 20.5157 13.8411 20.8594 15 20.8594C16.5534 20.8575 18.0427 20.2396 19.1411 19.1411C20.2396 18.0427 20.8575 16.5534 20.8594 15ZM7.00312 7.99687C7.0675 8.06596 7.14512 8.12137 7.23137 8.15979C7.31762 8.19822 7.41073 8.21889 7.50514 8.22055C7.59954 8.22222 7.69332 8.20485 7.78087 8.16949C7.86842 8.13413 7.94796 8.08149 8.01472 8.01472C8.08149 7.94796 8.13413 7.86842 8.16949 7.78087C8.20485 7.69332 8.22222 7.59954 8.22055 7.50514C8.21889 7.41073 8.19822 7.31762 8.15979 7.23137C8.12137 7.14512 8.06596 7.0675 7.99687 7.00312L6.12188 5.12812C5.98859 5.00392 5.81229 4.93631 5.63014 4.93952C5.44798 4.94274 5.27418 5.01653 5.14535 5.14535C5.01653 5.27418 4.94274 5.44798 4.93952 5.63014C4.93631 5.81229 5.00392 5.98859 5.12812 6.12188L7.00312 7.99687ZM7.00312 22.0031L5.12812 23.8781C5.05904 23.9425 5.00364 24.0201 4.96521 24.1064C4.92678 24.1926 4.90611 24.2857 4.90445 24.3801C4.90278 24.4745 4.92015 24.5683 4.95551 24.6559C4.99087 24.7434 5.04351 24.823 5.11028 24.8897C5.17704 24.9565 5.25658 25.0091 5.34413 25.0445C5.43168 25.0799 5.52546 25.0972 5.61986 25.0956C5.71427 25.0939 5.80738 25.0732 5.89363 25.0348C5.97988 24.9964 6.0575 24.941 6.12188 24.8719L7.99687 22.9969C8.06596 22.9325 8.12137 22.8549 8.15979 22.7686C8.19822 22.6824 8.21889 22.5893 8.22055 22.4949C8.22222 22.4005 8.20485 22.3067 8.16949 22.2191C8.13413 22.1316 8.08149 22.052 8.01472 21.9853C7.94796 21.9185 7.86842 21.8659 7.78087 21.8305C7.69332 21.7951 7.59954 21.7778 7.50514 21.7794C7.41073 21.7811 7.31762 21.8018 7.23137 21.8402C7.14512 21.8786 7.0675 21.934 7.00312 22.0031ZM22.5 8.20312C22.6864 8.20296 22.8651 8.12877 22.9969 7.99687L24.8719 6.12188C24.9961 5.98859 25.0637 5.81229 25.0605 5.63014C25.0573 5.44798 24.9835 5.27418 24.8546 5.14535C24.7258 5.01653 24.552 4.94274 24.3699 4.93952C24.1877 4.93631 24.0114 5.00392 23.8781 5.12812L22.0031 7.00312C21.9049 7.10146 21.8381 7.22669 21.811 7.363C21.7839 7.49931 21.7978 7.64059 21.851 7.76899C21.9041 7.89739 21.9942 8.00716 22.1097 8.08443C22.2252 8.1617 22.361 8.203 22.5 8.20312ZM22.9969 22.0031C22.8636 21.8789 22.6873 21.8113 22.5051 21.8145C22.323 21.8177 22.1492 21.8915 22.0204 22.0204C21.8915 22.1492 21.8177 22.323 21.8145 22.5051C21.8113 22.6873 21.8789 22.8636 22.0031 22.9969L23.8781 24.8719C24.0114 24.9961 24.1877 25.0637 24.3699 25.0605C24.552 25.0573 24.7258 24.9835 24.8546 24.8546C24.9835 24.7258 25.0573 24.552 25.0605 24.3699C25.0637 24.1877 24.9961 24.0114 24.8719 23.8781L22.9969 22.0031ZM5.39062 15C5.39062 14.8135 5.31655 14.6347 5.18468 14.5028C5.05282 14.371 4.87398 14.2969 4.6875 14.2969H1.875C1.68852 14.2969 1.50968 14.371 1.37782 14.5028C1.24595 14.6347 1.17188 14.8135 1.17188 15C1.17188 15.1865 1.24595 15.3653 1.37782 15.4972C1.50968 15.629 1.68852 15.7031 1.875 15.7031H4.6875C4.87398 15.7031 5.05282 15.629 5.18468 15.4972C5.31655 15.3653 5.39062 15.1865 5.39062 15ZM15 24.6094C14.8135 24.6094 14.6347 24.6835 14.5028 24.8153C14.371 24.9472 14.2969 25.126 14.2969 25.3125V28.125C14.2969 28.3115 14.371 28.4903 14.5028 28.6222C14.6347 28.754 14.8135 28.8281 15 28.8281C15.1865 28.8281 15.3653 28.754 15.4972 28.6222C15.629 28.4903 15.7031 28.3115 15.7031 28.125V25.3125C15.7031 25.126 15.629 24.9472 15.4972 24.8153C15.3653 24.6835 15.1865 24.6094 15 24.6094ZM28.125 14.2969H25.3125C25.126 14.2969 24.9472 14.371 24.8153 14.5028C24.6835 14.6347 24.6094 14.8135 24.6094 15C24.6094 15.1865 24.6835 15.3653 24.8153 15.4972C24.9472 15.629 25.126 15.7031 25.3125 15.7031H28.125C28.3115 15.7031 28.4903 15.629 28.6222 15.4972C28.754 15.3653 28.8281 15.1865 28.8281 15C28.8281 14.8135 28.754 14.6347 28.6222 14.5028C28.4903 14.371 28.3115 14.2969 28.125 14.2969Z" fill="white"/>
</svg>
