<svg width="30" height="30" viewBox="0 0 30 30" fill="none" xmlns="http://www.w3.org/2000/svg">
<path d="M26.875 15H24.2362M24.2362 15C24.2362 17.4498 23.2637 19.7986 21.5315 21.5308C19.7992 23.2631 17.4498 24.2362 15 24.2362M24.2362 15C24.2362 12.5502 23.2637 10.2002 21.5315 8.46792C19.7992 6.73567 17.4498 5.76375 15 5.76375M15 3.125V5.76375M15 5.76375C12.5504 5.76375 10.2011 6.7356 8.46898 8.46774C6.73685 10.1999 5.76375 12.5491 5.76375 14.9987C5.76375 17.4484 6.73685 19.7976 8.46898 21.5298C10.2011 23.2619 12.5504 24.2362 15 24.2362M3.125 15H5.76375M15 26.875V24.2362" stroke="white" stroke-width="1.5" stroke-miterlimit="10" stroke-linecap="round"/>
<path d="M15 20.2775C16.3997 20.2775 17.7421 19.7215 18.7318 18.7317C19.7215 17.742 20.2775 16.3997 20.2775 15C20.2775 13.6003 19.7215 12.2579 18.7318 11.2682C17.7421 10.2785 16.3997 9.72247 15 9.72247C13.6004 9.72247 12.258 10.2785 11.2683 11.2682C10.2786 12.2579 9.72253 13.6003 9.72253 15C9.72253 16.3997 10.2786 17.742 11.2683 18.7317C12.258 19.7215 13.6004 20.2775 15 20.2775Z" stroke="white" stroke-width="1.5" stroke-miterlimit="10" stroke-linecap="round"/>
</svg>
