<svg width="35" height="35" viewBox="0 0 35 35" fill="none" xmlns="http://www.w3.org/2000/svg">
<path d="M2.91663 21.1459C2.91663 22.0077 3.08637 22.861 3.41617 23.6572C3.74596 24.4534 4.22935 25.1769 4.83874 25.7862C6.06944 27.017 7.73864 27.7084 9.47913 27.7084H26.9791C28.2712 27.7107 29.516 27.2229 30.4625 26.3435C31.4091 25.4641 31.9869 24.2584 32.0794 22.9697C32.1719 21.681 31.7722 20.4051 30.961 19.3995C30.1498 18.3939 28.9874 17.7333 27.7083 17.5511C27.7225 15.0701 26.8328 12.6689 25.2053 10.7962C23.5779 8.92356 21.3242 7.70768 18.8654 7.37586C16.4067 7.04404 13.9113 7.61899 11.8457 8.99324C9.78003 10.3675 8.28556 12.447 7.64163 14.8429C6.27826 15.2411 5.08077 16.0706 4.22883 17.207C3.3769 18.3435 2.91647 19.7255 2.91663 21.1459Z" fill="#FDFDFD"/>
</svg>
