<svg width="84" height="84" viewBox="0 0 84 84" fill="none" xmlns="http://www.w3.org/2000/svg">
<path d="M40.0312 13.125V5.25C40.0312 4.72786 40.2387 4.2271 40.6079 3.85788C40.9771 3.48867 41.4779 3.28125 42 3.28125C42.5221 3.28125 43.0229 3.48867 43.3921 3.85788C43.7613 4.2271 43.9688 4.72786 43.9688 5.25V13.125C43.9688 13.6471 43.7613 14.1479 43.3921 14.5171C43.0229 14.8863 42.5221 15.0938 42 15.0938C41.4779 15.0938 40.9771 14.8863 40.6079 14.5171C40.2387 14.1479 40.0312 13.6471 40.0312 13.125ZM62.3438 42C62.3438 46.0236 61.1506 49.9569 58.9152 53.3024C56.6798 56.6479 53.5026 59.2554 49.7852 60.7952C46.0679 62.3349 41.9774 62.7378 38.0311 61.9529C34.0848 61.1679 30.4599 59.2303 27.6148 56.3852C24.7697 53.5401 22.8321 49.9152 22.0471 45.9689C21.2622 42.0226 21.6651 37.9321 23.2048 34.2148C24.7446 30.4974 27.3521 27.3202 30.6976 25.0848C34.0431 22.8494 37.9764 21.6562 42 21.6562C47.3936 21.6623 52.5646 23.8076 56.3785 27.6215C60.1924 31.4354 62.3377 36.6064 62.3438 42ZM58.4062 42C58.4062 38.7551 57.444 35.5832 55.6413 32.8852C53.8386 30.1872 51.2762 28.0844 48.2784 26.8426C45.2805 25.6009 41.9818 25.276 38.7993 25.909C35.6168 26.542 32.6935 28.1046 30.399 30.399C28.1046 32.6935 26.542 35.6168 25.909 38.7993C25.276 41.9818 25.6009 45.2805 26.8426 48.2784C28.0844 51.2762 30.1872 53.8386 32.8852 55.6413C35.5832 57.444 38.7551 58.4062 42 58.4062C46.3496 58.401 50.5196 56.6709 53.5952 53.5952C56.6709 50.5196 58.401 46.3496 58.4062 42ZM19.6087 22.3912C19.789 22.5847 20.0063 22.7398 20.2478 22.8474C20.4893 22.955 20.75 23.0129 21.0144 23.0176C21.2787 23.0222 21.5413 22.9736 21.7864 22.8746C22.0316 22.7756 22.2543 22.6282 22.4412 22.4412C22.6282 22.2543 22.7756 22.0316 22.8746 21.7864C22.9736 21.5413 23.0222 21.2787 23.0176 21.0144C23.0129 20.75 22.955 20.4893 22.8474 20.2478C22.7398 20.0063 22.5847 19.789 22.3912 19.6087L17.1413 14.3587C16.768 14.011 16.2744 13.8217 15.7644 13.8307C15.2543 13.8397 14.7677 14.0463 14.407 14.407C14.0463 14.7677 13.8397 15.2543 13.8307 15.7644C13.8217 16.2744 14.011 16.768 14.3587 17.1413L19.6087 22.3912ZM19.6087 61.6087L14.3587 66.8587C14.1653 67.039 14.0102 67.2563 13.9026 67.4978C13.795 67.7393 13.7371 68 13.7324 68.2644C13.7278 68.5287 13.7764 68.7913 13.8754 69.0364C13.9744 69.2816 14.1218 69.5043 14.3088 69.6912C14.4957 69.8782 14.7184 70.0256 14.9636 70.1246C15.2087 70.2236 15.4713 70.2722 15.7356 70.2675C16 70.2629 16.2607 70.205 16.5022 70.0974C16.7437 69.9898 16.961 69.8347 17.1413 69.6413L22.3912 64.3913C22.5847 64.211 22.7398 63.9937 22.8474 63.7522C22.955 63.5107 23.0129 63.25 23.0176 62.9856C23.0222 62.7213 22.9736 62.4587 22.8746 62.2136C22.7756 61.9684 22.6282 61.7457 22.4412 61.5588C22.2543 61.3718 22.0316 61.2244 21.7864 61.1254C21.5413 61.0264 21.2787 60.9778 21.0144 60.9824C20.75 60.9871 20.4893 61.045 20.2478 61.1526C20.0063 61.2602 19.789 61.4153 19.6087 61.6087ZM63 22.9688C63.522 22.9683 64.0224 22.7606 64.3913 22.3912L69.6413 17.1413C69.989 16.768 70.1783 16.2744 70.1693 15.7644C70.1603 15.2543 69.9537 14.7677 69.593 14.407C69.2323 14.0463 68.7457 13.8397 68.2356 13.8307C67.7256 13.8217 67.232 14.011 66.8587 14.3587L61.6087 19.6087C61.3338 19.8841 61.1465 20.2347 61.0707 20.6164C60.9949 20.9981 61.0339 21.3936 61.1827 21.7532C61.3316 22.1127 61.5837 22.4201 61.9071 22.6364C62.2306 22.8528 62.6109 22.9684 63 22.9688ZM64.3913 61.6087C64.018 61.261 63.5244 61.0717 63.0144 61.0807C62.5043 61.0897 62.0177 61.2963 61.657 61.657C61.2963 62.0177 61.0897 62.5043 61.0807 63.0144C61.0717 63.5244 61.261 64.018 61.6087 64.3913L66.8587 69.6413C67.232 69.989 67.7256 70.1783 68.2356 70.1693C68.7457 70.1603 69.2323 69.9537 69.593 69.593C69.9537 69.2323 70.1603 68.7457 70.1693 68.2356C70.1783 67.7256 69.989 67.232 69.6413 66.8587L64.3913 61.6087ZM15.0938 42C15.0938 41.4779 14.8863 40.9771 14.5171 40.6079C14.1479 40.2387 13.6471 40.0312 13.125 40.0312H5.25C4.72786 40.0312 4.2271 40.2387 3.85788 40.6079C3.48867 40.9771 3.28125 41.4779 3.28125 42C3.28125 42.5221 3.48867 43.0229 3.85788 43.3921C4.2271 43.7613 4.72786 43.9688 5.25 43.9688H13.125C13.6471 43.9688 14.1479 43.7613 14.5171 43.3921C14.8863 43.0229 15.0938 42.5221 15.0938 42ZM42 68.9062C41.4779 68.9062 40.9771 69.1137 40.6079 69.4829C40.2387 69.8521 40.0312 70.3529 40.0312 70.875V78.75C40.0312 79.2721 40.2387 79.7729 40.6079 80.1421C40.9771 80.5113 41.4779 80.7188 42 80.7188C42.5221 80.7188 43.0229 80.5113 43.3921 80.1421C43.7613 79.7729 43.9688 79.2721 43.9688 78.75V70.875C43.9688 70.3529 43.7613 69.8521 43.3921 69.4829C43.0229 69.1137 42.5221 68.9062 42 68.9062ZM78.75 40.0312H70.875C70.3529 40.0312 69.8521 40.2387 69.4829 40.6079C69.1137 40.9771 68.9062 41.4779 68.9062 42C68.9062 42.5221 69.1137 43.0229 69.4829 43.3921C69.8521 43.7613 70.3529 43.9688 70.875 43.9688H78.75C79.2721 43.9688 79.7729 43.7613 80.1421 43.3921C80.5113 43.0229 80.7188 42.5221 80.7188 42C80.7188 41.4779 80.5113 40.9771 80.1421 40.6079C79.7729 40.2387 79.2721 40.0312 78.75 40.0312Z" fill="white"/>
</svg>
