<svg width="41" height="42" viewBox="0 0 41 42" fill="none" xmlns="http://www.w3.org/2000/svg">
<path fill-rule="evenodd" clip-rule="evenodd" d="M7.26038 32.9583C7.26038 32.6185 7.39536 32.2926 7.63565 32.0523C7.87593 31.8121 8.20182 31.6771 8.54163 31.6771H32.4583C32.7981 31.6771 33.124 31.8121 33.3643 32.0523C33.6046 32.2926 33.7395 32.6185 33.7395 32.9583C33.7395 33.2981 33.6046 33.624 33.3643 33.8643C33.124 34.1046 32.7981 34.2396 32.4583 34.2396H8.54163C8.20182 34.2396 7.87593 34.1046 7.63565 33.8643C7.39536 33.624 7.26038 33.2981 7.26038 32.9583ZM12.3854 38.0833C12.3854 37.7435 12.5204 37.4176 12.7606 37.1773C13.0009 36.9371 13.3268 36.8021 13.6666 36.8021H27.3333C27.6731 36.8021 27.999 36.9371 28.2393 37.1773C28.4796 37.4176 28.6145 37.7435 28.6145 38.0833C28.6145 38.4231 28.4796 38.749 28.2393 38.9893C27.999 39.2296 27.6731 39.3646 27.3333 39.3646H13.6666C13.3268 39.3646 13.0009 39.2296 12.7606 38.9893C12.5204 38.749 12.3854 38.4231 12.3854 38.0833ZM20.5 2.63541C20.8398 2.63541 21.1657 2.77039 21.4059 3.01068C21.6462 3.25096 21.7812 3.57685 21.7812 3.91666V5.62499C21.7812 5.9648 21.6462 6.29069 21.4059 6.53097C21.1657 6.77125 20.8398 6.90624 20.5 6.90624C20.1602 6.90624 19.8343 6.77125 19.594 6.53097C19.3537 6.29069 19.2187 5.9648 19.2187 5.62499V3.91666C19.2187 3.57685 19.3537 3.25096 19.594 3.01068C19.8343 2.77039 20.1602 2.63541 20.5 2.63541ZM7.51492 8.01495C7.75515 7.77501 8.0808 7.64024 8.42033 7.64024C8.75987 7.64024 9.08552 7.77501 9.32575 8.01495L9.99713 8.68461C10.2306 8.92615 10.3599 9.24974 10.3572 9.58568C10.3544 9.92162 10.2198 10.243 9.98237 10.4807C9.74493 10.7184 9.42364 10.8533 9.0877 10.8564C8.75176 10.8594 8.42805 10.7304 8.18629 10.4972L7.51492 9.82578C7.27498 9.58555 7.14021 9.2599 7.14021 8.92036C7.14021 8.58083 7.27498 8.25518 7.51492 8.01495ZM33.485 8.01495C33.7249 8.25518 33.8597 8.58083 33.8597 8.92036C33.8597 9.2599 33.7249 9.58555 33.485 9.82578L32.8136 10.4972C32.5707 10.7235 32.2495 10.8467 31.9176 10.8408C31.5856 10.835 31.2689 10.7005 31.0342 10.4658C30.7994 10.231 30.665 9.91431 30.6591 9.58238C30.6533 9.25045 30.7765 8.92921 31.0028 8.68632L31.6742 8.01495C31.9144 7.77501 32.2401 7.64024 32.5796 7.64024C32.9191 7.64024 33.2448 7.77501 33.485 8.01495ZM2.13538 21C2.13538 20.6602 2.27036 20.3343 2.51065 20.094C2.75093 19.8537 3.07682 19.7187 3.41663 19.7187H5.12496C5.46477 19.7187 5.79066 19.8537 6.03094 20.094C6.27122 20.3343 6.40621 20.6602 6.40621 21C6.40621 21.3398 6.27122 21.6657 6.03094 21.906C5.79066 22.1463 5.46477 22.2812 5.12496 22.2812H3.41663C3.07682 22.2812 2.75093 22.1463 2.51065 21.906C2.27036 21.6657 2.13538 21.3398 2.13538 21ZM34.5937 21C34.5937 20.6602 34.7287 20.3343 34.969 20.094C35.2093 19.8537 35.5352 19.7187 35.875 19.7187H37.5833C37.9231 19.7187 38.249 19.8537 38.4893 20.094C38.7296 20.3343 38.8645 20.6602 38.8645 21C38.8645 21.3398 38.7296 21.6657 38.4893 21.906C38.249 22.1463 37.9231 22.2812 37.5833 22.2812H35.875C35.5352 22.2812 35.2093 22.1463 34.969 21.906C34.7287 21.6657 34.5937 21.3398 34.5937 21Z" fill="white"/>
<path d="M8.96871 21C8.96871 23.0124 9.48463 24.9052 10.3918 26.5521H3.41663C3.07682 26.5521 2.75093 26.6871 2.51065 26.9273C2.27036 27.1676 2.13538 27.4935 2.13538 27.8333C2.13538 28.1731 2.27036 28.499 2.51065 28.7393C2.75093 28.9796 3.07682 29.1146 3.41663 29.1146H37.5833C37.9231 29.1146 38.249 28.9796 38.4893 28.7393C38.7296 28.499 38.8645 28.1731 38.8645 27.8333C38.8645 27.4935 38.7296 27.1676 38.4893 26.9273C38.249 26.6871 37.9231 26.5521 37.5833 26.5521H30.6082C31.5203 24.8913 32.0092 23.0313 32.0316 21.1366C32.054 19.2419 31.6092 17.3709 30.7366 15.689C29.8639 14.0071 28.5904 12.5661 27.0284 11.4934C25.4665 10.4207 23.6643 9.74938 21.7812 9.53879V17.9062L23.0112 16.6762C23.1295 16.5539 23.2709 16.4563 23.4272 16.3893C23.5836 16.3222 23.7517 16.2869 23.9218 16.2855C24.092 16.2841 24.2607 16.3166 24.4181 16.3811C24.5755 16.4456 24.7185 16.5408 24.8388 16.6612C24.959 16.7815 25.0541 16.9246 25.1184 17.0821C25.1828 17.2396 25.2151 17.4084 25.2136 17.5785C25.212 17.7486 25.1766 17.9167 25.1094 18.073C25.0421 18.2293 24.9445 18.3706 24.822 18.4887L21.4054 21.9054C21.1651 22.1453 20.8395 22.2801 20.5 22.2801C20.1604 22.2801 19.8348 22.1453 19.5945 21.9054L16.1779 18.4887C16.052 18.3714 15.951 18.23 15.881 18.0728C15.811 17.9157 15.7733 17.746 15.7703 17.574C15.7672 17.4019 15.7989 17.2311 15.8633 17.0715C15.9278 16.912 16.0237 16.7671 16.1454 16.6454C16.267 16.5237 16.4119 16.4278 16.5715 16.3634C16.731 16.2989 16.9019 16.2673 17.0739 16.2703C17.246 16.2734 17.4156 16.311 17.5728 16.381C17.73 16.4511 17.8714 16.552 17.9887 16.6779L19.2187 17.9079V9.53708C16.3998 9.85263 13.796 11.196 11.9051 13.3103C10.0141 15.4247 8.96875 18.1617 8.96871 20.9983" fill="white"/>
</svg>
