<svg width="41" height="42" viewBox="0 0 41 42" fill="none" xmlns="http://www.w3.org/2000/svg">
<path fill-rule="evenodd" clip-rule="evenodd" d="M7.26038 32.9583C7.26038 32.6185 7.39536 32.2926 7.63565 32.0523C7.87593 31.8121 8.20182 31.6771 8.54163 31.6771H32.4583C32.7981 31.6771 33.124 31.8121 33.3643 32.0523C33.6046 32.2926 33.7395 32.6185 33.7395 32.9583C33.7395 33.2981 33.6046 33.624 33.3643 33.8643C33.124 34.1046 32.7981 34.2396 32.4583 34.2396H8.54163C8.20182 34.2396 7.87593 34.1046 7.63565 33.8643C7.39536 33.624 7.26038 33.2981 7.26038 32.9583ZM12.3854 38.0833C12.3854 37.7435 12.5204 37.4176 12.7606 37.1773C13.0009 36.9371 13.3268 36.8021 13.6666 36.8021H27.3333C27.6731 36.8021 27.999 36.9371 28.2393 37.1773C28.4796 37.4176 28.6145 37.7435 28.6145 38.0833C28.6145 38.4231 28.4796 38.749 28.2393 38.9893C27.999 39.2296 27.6731 39.3646 27.3333 39.3646H13.6666C13.3268 39.3646 13.0009 39.2296 12.7606 38.9893C12.5204 38.749 12.3854 38.4231 12.3854 38.0833ZM20.5 2.63541C20.8398 2.63541 21.1657 2.77039 21.4059 3.01068C21.6462 3.25096 21.7812 3.57685 21.7812 3.91666V5.62499C21.7812 5.9648 21.6462 6.29069 21.4059 6.53097C21.1657 6.77125 20.8398 6.90624 20.5 6.90624C20.1602 6.90624 19.8343 6.77125 19.594 6.53097C19.3537 6.29069 19.2187 5.9648 19.2187 5.62499V3.91666C19.2187 3.57685 19.3537 3.25096 19.594 3.01068C19.8343 2.77039 20.1602 2.63541 20.5 2.63541ZM7.51492 8.01495C7.75515 7.77501 8.0808 7.64024 8.42033 7.64024C8.75987 7.64024 9.08552 7.77501 9.32575 8.01495L9.99713 8.68461C10.2306 8.92615 10.3599 9.24974 10.3572 9.58568C10.3544 9.92162 10.2198 10.243 9.98237 10.4807C9.74493 10.7184 9.42364 10.8533 9.0877 10.8564C8.75176 10.8594 8.42805 10.7304 8.18629 10.4972L7.51492 9.82578C7.27498 9.58555 7.14021 9.2599 7.14021 8.92036C7.14021 8.58083 7.27498 8.25518 7.51492 8.01495ZM33.485 8.01495C33.7249 8.25518 33.8597 8.58083 33.8597 8.92036C33.8597 9.2599 33.7249 9.58555 33.485 9.82578L32.8136 10.4972C32.5707 10.7235 32.2495 10.8467 31.9176 10.8408C31.5856 10.835 31.2689 10.7005 31.0342 10.4658C30.7994 10.231 30.665 9.91431 30.6591 9.58238C30.6533 9.25045 30.7765 8.92921 31.0028 8.68632L31.6742 8.01495C31.9144 7.77501 32.2401 7.64024 32.5796 7.64024C32.9191 7.64024 33.2448 7.77501 33.485 8.01495ZM2.13538 21C2.13538 20.6602 2.27036 20.3343 2.51065 20.094C2.75093 19.8537 3.07682 19.7187 3.41663 19.7187H5.12496C5.46477 19.7187 5.79066 19.8537 6.03094 20.094C6.27122 20.3343 6.40621 20.6602 6.40621 21C6.40621 21.3398 6.27122 21.6657 6.03094 21.906C5.79066 22.1463 5.46477 22.2812 5.12496 22.2812H3.41663C3.07682 22.2812 2.75093 22.1463 2.51065 21.906C2.27036 21.6657 2.13538 21.3398 2.13538 21ZM34.5937 21C34.5937 20.6602 34.7287 20.3343 34.969 20.094C35.2093 19.8537 35.5352 19.7187 35.875 19.7187H37.5833C37.9231 19.7187 38.249 19.8537 38.4893 20.094C38.7296 20.3343 38.8645 20.6602 38.8645 21C38.8645 21.3398 38.7296 21.6657 38.4893 21.906C38.249 22.1463 37.9231 22.2812 37.5833 22.2812H35.875C35.5352 22.2812 35.2093 22.1463 34.969 21.906C34.7287 21.6657 34.5937 21.3398 34.5937 21Z" fill="white"/>
<path d="M8.96871 21C8.96871 23.0124 9.48463 24.9053 10.3918 26.5521H3.41663C3.07682 26.5521 2.75093 26.6871 2.51065 26.9274C2.27036 27.1676 2.13538 27.4935 2.13538 27.8333C2.13538 28.1731 2.27036 28.499 2.51065 28.7393C2.75093 28.9796 3.07682 29.1146 3.41663 29.1146H19.2187V20.6754L17.9887 21.9054C17.8714 22.0313 17.73 22.1323 17.5728 22.2023C17.4156 22.2723 17.246 22.31 17.0739 22.313C16.9019 22.3161 16.731 22.2844 16.5715 22.22C16.4119 22.1555 16.267 22.0596 16.1454 21.9379C16.0237 21.8163 15.9278 21.6714 15.8633 21.5118C15.7989 21.3523 15.7672 21.1814 15.7703 21.0094C15.7733 20.8373 15.811 20.6677 15.881 20.5105C15.951 20.3533 16.052 20.2119 16.1779 20.0946L19.5945 16.6779C19.8348 16.438 20.1604 16.3032 20.5 16.3032C20.8395 16.3032 21.1651 16.438 21.4054 16.6779L24.822 20.0946C24.9479 20.2119 25.0489 20.3533 25.1189 20.5105C25.1889 20.6677 25.2266 20.8373 25.2296 21.0094C25.2327 21.1814 25.201 21.3523 25.1366 21.5118C25.0721 21.6714 24.9762 21.8163 24.8546 21.9379C24.7329 22.0596 24.588 22.1555 24.4284 22.22C24.2689 22.2844 24.098 22.3161 23.926 22.313C23.754 22.31 23.5843 22.2723 23.4271 22.2023C23.27 22.1323 23.1285 22.0313 23.0112 21.9054L21.7812 20.6754V29.1146H37.5833C37.9231 29.1146 38.249 28.9796 38.4893 28.7393C38.7296 28.499 38.8645 28.1731 38.8645 27.8333C38.8645 27.4935 38.7296 27.1676 38.4893 26.9274C38.249 26.6871 37.9231 26.5521 37.5833 26.5521H30.6082C31.4542 25.0109 31.9367 23.2967 32.0187 21.5404C32.1006 19.7842 31.7799 18.0325 31.0811 16.4192C30.3822 14.8059 29.3237 13.3738 27.9865 12.2324C26.6492 11.0909 25.0687 10.2703 23.3657 9.8334C21.6627 9.39646 19.8824 9.35472 18.1608 9.71136C16.4392 10.068 14.822 10.8136 13.4327 11.8911C12.0435 12.9687 10.919 14.3496 10.1453 15.9283C9.3716 17.5071 8.96915 19.2419 8.96871 21Z" fill="white"/>
</svg>
