<svg width="41" height="42" viewBox="0 0 41 42" fill="none" xmlns="http://www.w3.org/2000/svg">
<path d="M29.4688 29.9688C29.4688 31.328 28.9288 32.6315 27.9677 33.5927C27.0065 34.5538 25.703 35.0938 24.3438 35.0938C22.1496 35.0938 20.0275 33.6636 19.2988 31.6952C19.1879 31.3783 19.2059 31.0306 19.3488 30.7268C19.4916 30.423 19.7481 30.1874 20.0629 30.0707C20.3777 29.954 20.7257 29.9655 21.0321 30.1028C21.3385 30.2401 21.5787 30.4922 21.7012 30.8048C22.0599 31.7737 23.2227 32.5312 24.3438 32.5312C25.0234 32.5312 25.6751 32.2613 26.1557 31.7807C26.6363 31.3001 26.9062 30.6484 26.9062 29.9688C26.9062 29.2891 26.6363 28.6374 26.1557 28.1568C25.6751 27.6762 25.0234 27.4062 24.3438 27.4062H6.40625C6.06644 27.4062 5.74055 27.2713 5.50027 27.031C5.25999 26.7907 5.125 26.4648 5.125 26.125C5.125 25.7852 5.25999 25.4593 5.50027 25.219C5.74055 24.9787 6.06644 24.8438 6.40625 24.8438H24.3438C25.703 24.8438 27.0065 25.3837 27.9677 26.3448C28.9288 27.306 29.4688 28.6095 29.4688 29.9688ZM19.2188 17.1562C20.578 17.1562 21.8815 16.6163 22.8427 15.6552C23.8038 14.694 24.3438 13.3905 24.3438 12.0312C24.3438 10.672 23.8038 9.36845 22.8427 8.40733C21.8815 7.4462 20.578 6.90625 19.2188 6.90625C17.0246 6.90625 14.9025 8.33645 14.1738 10.3048C14.0629 10.6217 14.0809 10.9694 14.2238 11.2732C14.3666 11.577 14.6231 11.8126 14.9379 11.9293C15.2527 12.046 15.6007 12.0345 15.9071 11.8972C16.2135 11.7599 16.4537 11.5078 16.5762 11.1952C16.9349 10.2263 18.0977 9.46875 19.2188 9.46875C19.8984 9.46875 20.5501 9.73873 21.0307 10.2193C21.5113 10.6999 21.7812 11.3516 21.7812 12.0312C21.7812 12.7109 21.5113 13.3626 21.0307 13.8432C20.5501 14.3238 19.8984 14.5938 19.2188 14.5938H3.84375C3.50394 14.5938 3.17805 14.7287 2.93777 14.969C2.69749 15.2093 2.5625 15.5352 2.5625 15.875C2.5625 16.2148 2.69749 16.5407 2.93777 16.781C3.17805 17.0213 3.50394 17.1562 3.84375 17.1562H19.2188ZM33.3125 12.0312C31.1184 12.0312 28.9963 13.4614 28.2676 15.4298C28.1567 15.7467 28.1746 16.0944 28.3175 16.3982C28.4604 16.702 28.7168 16.9376 29.0316 17.0543C29.3464 17.171 29.6944 17.1595 30.0008 17.0222C30.3072 16.8849 30.5475 16.6328 30.6699 16.3202C31.0287 15.3513 32.1914 14.5938 33.3125 14.5938C33.9921 14.5938 34.6439 14.8637 35.1245 15.3443C35.605 15.8249 35.875 16.4766 35.875 17.1562C35.875 17.8359 35.605 18.4876 35.1245 18.9682C34.6439 19.4488 33.9921 19.7188 33.3125 19.7188H5.125C4.78519 19.7188 4.4593 19.8537 4.21902 20.094C3.97874 20.3343 3.84375 20.6602 3.84375 21C3.84375 21.3398 3.97874 21.6657 4.21902 21.906C4.4593 22.1463 4.78519 22.2812 5.125 22.2812H33.3125C34.6717 22.2812 35.9753 21.7413 36.9364 20.7802C37.8975 19.819 38.4375 18.5155 38.4375 17.1562C38.4375 15.797 37.8975 14.4935 36.9364 13.5323C35.9753 12.5712 34.6717 12.0312 33.3125 12.0312Z" fill="#FDFDFD"/>
</svg>
